<?xml version="1.0" standalone="no"?>
<!DOCTYPE svg PUBLIC "-//W3C//DTD SVG 20010904//EN"
        "http://www.w3.org/TR/2001/REC-SVG-20010904/DTD/svg10.dtd">
<svg version="1.0" xmlns="http://www.w3.org/2000/svg"
     width="936.000000pt" height="936.000000pt" viewBox="0 0 936.000000 936.000000"
     preserveAspectRatio="xMidYMid meet">
    <metadata>
        Created by potrace 1.13, written by Peter Selinger 2001-2015
    </metadata>
    <g transform="translate(0.000000,936.000000) scale(0.100000,-0.100000)"
       fill="#000000" stroke="none">
        <path d="M1838 8338 c-25 -18 -56 -48 -67 -68 -20 -36 -20 -41 -23 -2956 l-2
-2919 30 -45 c33 -50 70 -77 194 -143 47 -25 105 -56 130 -70 46 -26 54 -30
200 -109 47 -25 108 -59 136 -75 28 -17 61 -34 72 -38 12 -3 22 -11 22 -16 0
-5 6 -9 13 -9 8 0 36 -16 63 -35 27 -19 55 -35 63 -35 8 0 29 -11 47 -25 18
-14 37 -25 43 -25 11 0 92 -40 101 -49 3 -4 25 -16 50 -29 25 -12 72 -38 105
-57 33 -18 85 -46 115 -62 30 -15 57 -30 60 -33 3 -3 25 -15 50 -28 25 -12 72
-38 105 -57 33 -18 76 -42 95 -52 19 -11 76 -41 125 -68 50 -27 106 -57 125
-67 19 -11 62 -35 95 -53 33 -19 83 -46 110 -60 28 -14 66 -35 85 -47 19 -11
58 -32 85 -46 28 -14 52 -28 55 -32 3 -3 39 -22 80 -43 41 -21 91 -48 110 -59
19 -11 58 -32 85 -46 28 -14 52 -28 55 -31 20 -22 194 -101 222 -101 30 0 118
40 248 113 25 14 65 37 90 50 25 14 61 34 80 45 19 12 55 31 80 44 25 13 51
29 58 36 7 6 17 12 22 12 5 0 42 19 82 43 40 23 91 51 113 62 22 11 42 23 45
27 3 4 17 11 30 17 14 6 52 26 85 45 33 19 78 45 100 57 22 11 65 35 95 52
112 63 136 76 181 100 25 14 63 35 85 47 21 13 63 36 93 52 30 16 75 41 100
54 25 14 60 34 76 44 17 10 50 29 75 42 25 12 66 35 91 50 25 16 53 28 61 28
8 0 23 9 33 20 9 10 34 25 54 31 20 7 52 24 71 38 19 14 44 31 56 37 11 7 44
25 73 40 28 16 78 43 109 61 31 17 77 42 102 55 25 13 51 29 58 36 7 6 17 12
22 12 5 0 42 19 82 43 40 23 91 51 113 62 22 11 42 23 45 27 3 4 17 12 30 18
53 23 86 48 115 89 l30 43 0 2928 0 2928 -30 44 c-17 23 -49 53 -70 65 l-40
23 -2765 -1 -2765 0 -47 -31z m5317 -3072 l0 -2699 -80 -44 c-44 -24 -93 -50
-110 -58 -16 -9 -46 -25 -65 -36 -19 -12 -55 -32 -80 -46 -25 -13 -54 -29 -65
-36 -104 -63 -137 -82 -250 -142 -27 -14 -66 -35 -85 -47 -19 -11 -57 -32 -83
-47 -27 -14 -74 -40 -105 -58 -31 -17 -77 -42 -102 -55 -25 -12 -47 -25 -50
-29 -3 -3 -30 -18 -60 -33 -30 -16 -57 -31 -60 -35 -3 -3 -25 -16 -50 -29 -25
-12 -72 -38 -105 -57 -33 -19 -67 -38 -75 -41 -8 -3 -22 -9 -30 -14 -8 -5 -35
-20 -60 -33 -25 -14 -61 -34 -80 -45 -19 -12 -55 -31 -80 -44 -42 -22 -177
-97 -210 -118 -8 -5 -35 -20 -60 -32 -25 -13 -47 -25 -50 -29 -3 -3 -27 -17
-55 -31 -27 -14 -66 -35 -85 -46 -19 -11 -55 -32 -80 -45 -25 -14 -70 -39
-100 -56 -30 -18 -69 -38 -87 -46 -17 -8 -34 -19 -38 -25 -8 -13 -68 -13 -80
-1 -6 6 -32 22 -60 37 -27 15 -84 45 -125 67 -41 22 -91 49 -110 59 -19 11
-62 35 -95 54 -33 18 -82 45 -110 59 -27 15 -66 35 -85 47 -19 11 -57 32 -85
46 -27 14 -52 28 -55 32 -3 3 -39 22 -80 43 -41 21 -88 47 -105 56 -45 26
-179 98 -270 145 -44 23 -82 44 -85 48 -3 4 -17 12 -30 17 -14 6 -52 27 -85
46 -33 19 -83 46 -112 60 -28 14 -55 30 -58 35 -3 6 -15 10 -26 10 -10 0 -19
4 -19 9 0 5 -12 14 -27 20 -35 15 -86 42 -93 50 -3 3 -39 23 -80 44 -41 21
-102 54 -135 73 -33 18 -69 38 -80 44 -11 6 -33 18 -50 28 -16 10 -66 38 -110
62 -44 23 -84 46 -90 50 -5 4 -49 28 -96 53 -47 25 -96 51 -108 58 l-21 14 0
2691 c0 1480 3 2694 7 2697 3 4 1129 6 2502 5 l2496 -3 0 -2699z"/>
        <path d="M4620 7598 c-46 -134 -121 -357 -168 -497 l-85 -254 -525 6 c-303 4
-522 3 -516 -2 12 -11 576 -414 730 -521 65 -46 120 -84 122 -85 2 -2 -69
-222 -157 -491 -88 -268 -159 -489 -157 -491 2 -2 188 132 412 298 225 166
414 302 419 302 6 0 196 -136 424 -302 227 -166 415 -300 417 -298 2 2 -35
125 -82 273 -48 148 -107 334 -131 414 -25 80 -56 176 -69 214 -14 38 -21 72
-17 76 4 4 195 144 423 311 l414 304 -521 3 -521 2 -162 490 c-89 270 -163
490 -165 490 -1 0 -40 -109 -85 -242z"/>
        <path d="M2580 5134 l0 -569 1034 -563 c568 -309 1039 -562 1046 -562 8 0 485
251 1062 558 l1048 557 2 573 c3 505 1 572 -12 566 -8 -3 -334 -171 -725 -374
-390 -202 -857 -445 -1038 -538 l-327 -170 -1028 539 c-565 296 -1036 541
-1045 545 -16 6 -17 -31 -17 -562z"/>
        <path d="M2580 3434 l0 -569 1034 -563 c568 -309 1039 -562 1046 -562 8 0 485
251 1062 558 l1048 557 2 573 c3 505 1 572 -12 566 -8 -3 -334 -171 -725 -374
-390 -202 -857 -445 -1038 -538 l-327 -170 -1028 539 c-565 296 -1036 541
-1045 545 -16 6 -17 -31 -17 -562z"/>
    </g>
</svg>
